# xmcd
#
# Track frame offsets:
#	150
#	15605
#	25922
#	43860
#	64660
#	78234
#	94585
#	109583
#	120593
#	133209
#	144722
#	158910
#	171692
#	184826
#	197947
#	207417
#	215188
#	223229
#
# Disc length: 3109 seconds
#
# Revision: 2
# Processed by: cddbd v1.5.2PL0 Copyright (c) Steve Scherf et al.
# Submitted via: audiograbber 1.83.01
#
DISCID=1a0c2312
DTITLE=Mungo Jerry - The Dawn Singles Collection CD2
DYEAR=1900
DGENRE=Rock
TTITLE0=Open Up
TTITLE1=Going Back Home
TTITLE2=I Don't Want To Go Back To School
TTITLE3=No Girl Reaction
TTITLE4=My Girl And Me
TTITLE5=Summer's Gone
TTITLE6=46 And On
TTITLE7=A Goodie Boogie Woogie
TTITLE8=Alright, Alright, Alright
TTITLE9=Little Miss Hippshake
TTITLE10=Wild Love
TTITLE11=Glad I'm A Rocker
TTITLE12=Long Legged Woman Dressed In Black
TTITLE13=Gonna Bop Till I Drop
TTITLE14=All Dressed Up With No Place To Go
TTITLE15=Shake Till I Break
TTITLE16=Too Fast To Live And To Young To Die
TTITLE17=Burnin' Up
EXTD=
EXTT0=
EXTT1=
EXTT2=
EXTT3=
EXTT4=
EXTT5=
EXTT6=
EXTT7=
EXTT8=
EXTT9=
EXTT10=
EXTT11=
EXTT12=
EXTT13=
EXTT14=
EXTT15=
EXTT16=
EXTT17=
PLAYORDER=
